<?xml version="1.0" encoding="UTF-8"?> <svg xmlns="http://www.w3.org/2000/svg" width="248" height="32" viewBox="0 0 248 32" fill="none"><path d="M16.3575 14.08H31.59V16.1275C31.59 18.3025 31.2375 20.3275 30.5325 22.2025C29.8275 24.0625 28.8075 25.6975 27.4725 27.1075C26.1525 28.5025 24.5625 29.59 22.7025 30.37C20.8425 31.15 18.7575 31.54 16.4475 31.54C14.0625 31.54 11.91 31.15 9.99 30.37C8.085 29.59 6.45 28.5025 5.085 27.1075C3.72 25.6975 2.67 24.0625 1.935 22.2025C1.215 20.3275 0.855 18.3025 0.855 16.1275C0.855 13.9675 1.215 11.9575 1.935 10.0975C2.67 8.2225 3.72 6.5875 5.085 5.1925C6.45 3.7975 8.085 2.71 9.99 1.93C11.91 1.15 14.0625 0.759998 16.4475 0.759998C18.6075 0.759998 20.475 0.992498 22.05 1.4575C23.625 1.9225 24.9525 2.53 26.0325 3.28C27.1125 4.015 27.9975 4.81 28.6875 5.665C29.3775 6.505 29.925 7.3 30.33 8.05L21.96 11.83C21.54 11.11 20.9175 10.435 20.0925 9.805C19.2825 9.175 18.0675 8.86 16.4475 8.86C15.4725 8.86 14.58 9.055 13.77 9.445C12.975 9.82 12.2925 10.345 11.7225 11.02C11.1525 11.68 10.71 12.4525 10.395 13.3375C10.095 14.2075 9.945 15.1375 9.945 16.1275C9.945 17.1325 10.095 18.0775 10.395 18.9625C10.71 19.8325 11.1525 20.605 11.7225 21.28C12.2925 21.94 12.975 22.4575 13.77 22.8325C14.58 23.2075 15.4725 23.395 16.4475 23.395C17.2275 23.395 17.925 23.3425 18.54 23.2375C19.17 23.1175 19.7025 22.945 20.1375 22.72C20.5875 22.48 20.94 22.1875 21.195 21.8425C21.465 21.4825 21.6375 21.07 21.7125 20.605H16.3575V14.08ZM31.8642 1.3H51.7992V8.86H40.5717V12.46H51.7992V19.7725H40.5717V23.44H51.7992V31H31.8642V1.3ZM64.9849 0.759998C66.9049 0.759998 68.6074 0.969998 70.0924 1.39C71.5924 1.795 72.7999 2.23 73.7149 2.695C74.6449 3.16 75.2149 3.475 75.4249 3.64L71.3074 10.615C71.0674 10.435 70.6474 10.1875 70.0474 9.8725C69.4624 9.5425 68.8024 9.25 68.0674 8.995C67.3324 8.74 66.6274 8.6125 65.9524 8.6125C65.1574 8.6125 64.4974 8.725 63.9724 8.95C63.4474 9.16 63.1849 9.5275 63.1849 10.0525C63.1849 10.4125 63.3274 10.7425 63.6124 11.0425C63.8974 11.3425 64.3774 11.65 65.0524 11.965C65.7424 12.28 66.6799 12.64 67.8649 13.045C69.0199 13.42 70.0774 13.885 71.0374 14.44C71.9974 14.995 72.8224 15.655 73.5124 16.42C74.2174 17.185 74.7649 18.0625 75.1549 19.0525C75.5449 20.0425 75.7399 21.16 75.7399 22.405C75.7399 24.055 75.3949 25.465 74.7049 26.635C74.0299 27.79 73.1224 28.7275 71.9824 29.4475C70.8424 30.1675 69.5674 30.6925 68.1574 31.0225C66.7624 31.3675 65.3449 31.54 63.9049 31.54C61.6999 31.54 59.7349 31.3 58.0099 30.82C56.2999 30.34 54.9124 29.8225 53.8474 29.2675C52.7974 28.6975 52.1524 28.2925 51.9124 28.0525L56.1649 20.785C56.3299 20.92 56.6824 21.1375 57.2224 21.4375C57.7774 21.7375 58.4374 22.0525 59.2024 22.3825C59.9824 22.7125 60.7849 22.9975 61.6099 23.2375C62.4349 23.4625 63.1999 23.575 63.9049 23.575C64.8499 23.575 65.5474 23.44 65.9974 23.17C66.4474 22.9 66.6724 22.51 66.6724 22C66.6724 21.64 66.5299 21.3025 66.2449 20.9875C65.9749 20.6725 65.4799 20.3425 64.7599 19.9975C64.0549 19.6375 63.0499 19.225 61.7449 18.76C60.4849 18.295 59.2849 17.6875 58.1449 16.9375C57.0049 16.1875 56.0749 15.2125 55.3549 14.0125C54.6349 12.8125 54.2749 11.3125 54.2749 9.5125C54.2749 7.6825 54.7849 6.115 55.8049 4.81C56.8249 3.505 58.1524 2.5075 59.7874 1.8175C61.4224 1.1125 63.1549 0.759998 64.9849 0.759998ZM81.1649 8.86H74.7524V1.3H96.2849V8.86H89.8724V31H81.1649V8.86ZM96.1052 1.3H109.425C111.225 1.3 112.815 1.6825 114.195 2.4475C115.575 3.1975 116.655 4.2775 117.435 5.6875C118.215 7.0825 118.605 8.74 118.605 10.66C118.605 12.565 118.29 14.11 117.66 15.295C117.045 16.465 116.303 17.3425 115.433 17.9275C114.563 18.5125 113.76 18.8875 113.025 19.0525L120.135 31H110.37L104.25 19.7275H104.835V31H96.1052V1.3ZM104.835 13.8325H106.275C107.07 13.8325 107.828 13.645 108.548 13.27C109.283 12.895 109.65 12.1225 109.65 10.9525C109.65 9.7825 109.298 9.01 108.593 8.635C107.888 8.26 107.138 8.0725 106.343 8.0725H104.835V13.8325ZM121.134 1.3H129.841V31H121.134V1.3ZM147.747 22.9C148.797 22.9 149.809 22.735 150.784 22.405C151.774 22.075 152.539 21.745 153.079 21.415L156.792 28.795C156.072 29.395 154.849 30.0025 153.124 30.6175C151.399 31.2325 149.367 31.54 147.027 31.54C144.837 31.54 142.767 31.165 140.817 30.415C138.867 29.65 137.134 28.5775 135.619 27.1975C134.119 25.8175 132.942 24.1975 132.087 22.3375C131.232 20.4625 130.804 18.415 130.804 16.195C130.804 13.975 131.232 11.9275 132.087 10.0525C132.942 8.1625 134.119 6.5275 135.619 5.1475C137.119 3.7525 138.844 2.6725 140.794 1.9075C142.759 1.1425 144.837 0.759998 147.027 0.759998C149.367 0.759998 151.399 1.0675 153.124 1.6825C154.849 2.2975 156.072 2.905 156.792 3.505L153.079 10.885C152.539 10.555 151.774 10.225 150.784 9.895C149.809 9.565 148.797 9.4 147.747 9.4C146.322 9.4 145.129 9.6025 144.169 10.0075C143.209 10.4125 142.437 10.9525 141.852 11.6275C141.282 12.2875 140.869 13.015 140.614 13.81C140.374 14.59 140.254 15.3625 140.254 16.1275C140.254 16.9075 140.374 17.695 140.614 18.49C140.869 19.285 141.282 20.02 141.852 20.695C142.437 21.355 143.209 21.8875 144.169 22.2925C145.129 22.6975 146.322 22.9 147.747 22.9ZM165.874 16.1275C165.874 17.4625 166.144 18.685 166.684 19.795C167.224 20.89 167.981 21.7675 168.956 22.4275C169.931 23.0725 171.071 23.395 172.376 23.395C173.696 23.395 174.844 23.0725 175.819 22.4275C176.794 21.7675 177.551 20.89 178.091 19.795C178.631 18.685 178.901 17.4625 178.901 16.1275C178.901 14.7925 178.631 13.5775 178.091 12.4825C177.551 11.3875 176.794 10.51 175.819 9.85C174.844 9.19 173.696 8.86 172.376 8.86C171.071 8.86 169.931 9.19 168.956 9.85C167.981 10.51 167.224 11.3875 166.684 12.4825C166.144 13.5775 165.874 14.7925 165.874 16.1275ZM156.784 16.1275C156.784 13.9675 157.174 11.9575 157.954 10.0975C158.749 8.2225 159.851 6.5875 161.261 5.1925C162.671 3.7975 164.321 2.71 166.211 1.93C168.116 1.15 170.171 0.759998 172.376 0.759998C174.626 0.759998 176.696 1.15 178.586 1.93C180.491 2.71 182.141 3.7975 183.536 5.1925C184.946 6.5875 186.034 8.2225 186.799 10.0975C187.579 11.9575 187.969 13.9675 187.969 16.1275C187.969 18.3025 187.594 20.3275 186.844 22.2025C186.094 24.0625 185.021 25.6975 183.626 27.1075C182.246 28.5025 180.604 29.59 178.699 30.37C176.794 31.15 174.686 31.54 172.376 31.54C170.006 31.54 167.861 31.15 165.941 30.37C164.036 29.59 162.401 28.5025 161.036 27.1075C159.671 25.6975 158.621 24.0625 157.886 22.2025C157.151 20.3275 156.784 18.3025 156.784 16.1275ZM196.287 9.22L196.94 9.3325V31H188.232V1.3H200L209.697 22.9L209.045 23.035V1.3H217.752V31H205.917L196.287 9.22ZM219.323 1.3H237.66V8.86H228.053V12.3475H236.873V19.885H228.053V31H219.323V1.3ZM238.406 1.3H247.114V31H238.406V1.3Z" fill="#2F55B7"></path></svg> 