<svg xmlns="http://www.w3.org/2000/svg" width="288" height="50" fill="none">
  <path fill="#191823" fill-rule="evenodd" d="M36.806 17.936a11.592 11.592 0 0 1 1.592 5.117c8.985 2.37 14.975 7.078 14.767 12.587 0 7.863-11.772 14.156-26.33 14.156-14.56 0-26.383-6.31-26.383-14.173 0-5.697 6.18-10.609 14.974-12.775.05 2.123.595 4.207 1.593 6.09l8.17 14.155a13.11 13.11 0 0 1 1.403 3.548l.398-.989a11.28 11.28 0 0 0 1.493-5.603c0-1.963-.515-3.893-1.493-5.603l-6.578-11.205a11.28 11.28 0 0 1-1.493-5.603c0-1.963.514-3.893 1.493-5.603v-1.194a14.996 14.996 0 0 0 1.385 3.548l3.79 6.686 6.025 10.42a13.22 13.22 0 0 1 1.402 3.531l.399-.58a11.28 11.28 0 0 0 1.492-5.603 11.28 11.28 0 0 0-1.492-5.602l-6.579-11.206a11.196 11.196 0 0 1-1.505-5.603c0-1.964.519-3.895 1.505-5.603l.399-.597a15.214 15.214 0 0 0 1.384 3.531l8.189 14.173ZM64.504 42.31a18.35 18.35 0 0 0-.987 4.912 27.733 27.733 0 0 0 9.972 1.961c8.379 0 12.776-3.922 12.776-9.431 0-4.725-2.787-7.658-8.985-10.234l-2.597-.99c-3.462-1.38-5.384-2.745-5.384-5.508s1.732-4.315 6.18-4.315c2.788 0 5.557.46 8.19 1.364a16.342 16.342 0 0 0 1.003-4.912 27.238 27.238 0 0 0-8.984-1.279c-7.981 0-11.98 3.735-11.98 9.244 0 5.117 2.995 7.863 7.79 9.841l2.597.972c4.587 1.979 6.578 3.156 6.578 6.106 0 2.951-2.597 4.316-7.184 4.316a21.792 21.792 0 0 1-8.985-2.047Zm48.473-18.488v24.577h-4.969l-.225-2.951a7.634 7.634 0 0 1-2.971 2.704 7.79 7.79 0 0 1-3.954.844c-6.578 0-10.975-4.725-10.975-12.98 0-8.647 4.795-13.644 13.97-13.644a27.557 27.557 0 0 1 9.124 1.45Zm-5.367 3.547v15.35a11.024 11.024 0 0 1-5.574 1.962c-4.796 0-6.786-3.736-6.786-8.648 0-5.304 2.787-8.851 8.378-8.851a22.181 22.181 0 0 1 3.982.187Zm33.342 4.52V48.21h-5.47V32.86c0-3.94-1.385-5.714-6.787-5.714a37.657 37.657 0 0 0-4.379.393v20.859h-5.332V23.82a53.492 53.492 0 0 1 9.988-1.364c9.176-.051 11.98 3.53 11.98 9.432Zm19.354 11.598a8.87 8.87 0 0 1-4.189.784c-2.597 0-4.189-1.177-4.189-4.315V28.016h8.171c.103-.784.155-1.569.207-2.353.052-.785.104-1.57.191-2.354h-8.777v-9.313a16.87 16.87 0 0 0-5.384.785v25.754c0 5.901 3.462 8.255 8.777 8.255 1.573.03 3.137-.242 4.605-.802.104-.682.207-1.466.294-2.251.087-.767.19-1.569.294-2.251Zm25.137-19.665v24.577h-4.951l-.208-2.951a7.625 7.625 0 0 1-2.97 2.707 7.771 7.771 0 0 1-3.955.841c-6.578 0-10.975-4.725-10.975-12.98 0-8.647 4.795-13.644 13.97-13.644a27.47 27.47 0 0 1 9.089 1.45Zm-5.384 3.547v15.35a11.134 11.134 0 0 1-5.592 1.962c-4.778 0-6.786-3.736-6.786-8.648 0-5.304 2.805-8.851 8.379-8.851a22.374 22.374 0 0 1 3.999.187Zm33.532 4.52V48.21H208V32.86c0-3.94-1.403-5.714-6.786-5.714a37.938 37.938 0 0 0-4.398.393v20.859h-5.383V23.82a53.105 53.105 0 0 1 9.971-1.364c8.985-.051 12.187 3.53 12.187 9.432Zm27.491 16.322V13.996a20.345 20.345 0 0 0-5.193.597v8.05a31.36 31.36 0 0 0-4.19-.392c-9.192 0-13.97 4.912-13.97 13.645 0 8.255 4.38 12.962 10.975 12.962a8.056 8.056 0 0 0 4.124-.927 7.914 7.914 0 0 0 3.061-2.876l.19 3.155h5.003Zm-5.384-5.509v-15.18a34.256 34.256 0 0 0-4.38-.392c-5.401 0-7.998 3.411-7.998 8.852 0 4.912 2.009 8.647 6.787 8.647a11.083 11.083 0 0 0 5.626-1.927h-.035Zm15.407-4.946h17.554c.208-1.368.208-2.76 0-4.128 0-6.293-3.462-11.205-11.166-11.205-8.655 0-11.979 5.697-11.979 12.962 0 8.528 4.397 13.372 13.572 13.372a21.388 21.388 0 0 0 8.188-1.569 35.7 35.7 0 0 0 .641-3.855c0-.375.104-.733.156-1.057a19.828 19.828 0 0 1-8.795 1.961c-4.985.034-7.374-2.132-8.171-6.481Zm0-4.52h12.378c0-4.127-2.198-6.498-5.99-6.498-3.791 0-6.024 2.49-6.388 6.532v-.034Zm36.355-5.901c.245-1.564.378-3.142.398-4.724a31.775 31.775 0 0 0-4.588-.188c-3.178 0-6.34.46-9.383 1.364v24.39h5.28V27.368c.71 0 1.351 0 2.009-.102.657-.103 1.298-.103 1.99-.103 1.423-.037 2.847.031 4.259.205l.035-.034Z" clip-rule="evenodd"/>
</svg>
