<svg width="277" height="65" viewBox="0 0 277 65" fill="none" xmlns="http://www.w3.org/2000/svg">
<g clip-path="url(#clip0_4896_166650)">
<path d="M36.6471 22.4658C40.4402 25.5349 42.8002 29.701 43.7272 34.964H33.8771C33.4516 32.3271 32.0395 29.9506 29.9271 28.316C27.8403 26.7131 25.2199 25.9135 22.0658 25.9172C18.6768 25.8346 15.4157 27.2129 13.1132 29.701C10.7199 32.2273 9.52511 35.9335 9.5288 40.8198C9.53249 45.7061 10.7273 49.4234 13.1132 51.9718C15.403 54.483 18.6683 55.8793 22.0658 55.8C25.2199 55.8 27.8403 54.9856 29.9271 53.3568C32.0325 51.7041 33.4419 49.3222 33.8771 46.6811H43.7272C42.8076 51.9478 40.4475 56.1287 36.6471 59.2237C32.8467 62.3187 28.0453 63.8644 22.2431 63.8607C18.2281 63.9399 14.2602 62.9861 10.7199 61.0907C7.38187 59.2468 4.65092 56.4735 2.85864 53.1075C0.95288 49.669 0 45.5805 0 40.842C0 36.1034 0.949187 32.0315 2.84756 28.6263C4.63984 25.2603 7.37079 22.487 10.7088 20.6431C14.2492 18.748 18.2171 17.7941 22.232 17.8731C28.0379 17.8731 32.843 19.404 36.6471 22.4658ZM110.828 3.07579V63.3177H101.548V3.07579H110.828ZM153.175 20.6653C156.611 22.4746 159.442 25.2497 161.319 28.6484C163.277 32.1202 164.254 36.1921 164.25 40.8641C164.246 45.5362 163.269 49.6339 161.319 53.1574C159.442 56.5561 156.611 59.3312 153.175 61.1405C149.556 63.0214 145.526 63.9732 141.447 63.9105C137.383 63.9759 133.366 63.0237 129.763 61.1405C126.332 59.3086 123.503 56.5225 121.62 53.1186C119.636 49.6173 118.646 45.5325 118.65 40.8641C118.654 36.1958 119.644 32.1239 121.62 28.6484C123.513 25.2615 126.34 22.4904 129.763 20.6653C133.366 18.7821 137.383 17.8299 141.447 17.8953C145.524 17.826 149.554 18.7702 153.175 20.6431V20.6653ZM134.855 27.5903C132.782 28.7371 131.095 30.4721 130.007 32.5763C128.716 35.1353 128.085 37.9769 128.173 40.842C128.173 44.166 128.785 46.936 130.007 49.152C131.098 51.2541 132.784 52.9882 134.855 54.138C138.985 56.3023 143.915 56.3023 148.045 54.138C150.115 52.9866 151.8 51.2529 152.893 49.152C154.112 46.936 154.721 44.166 154.721 40.842C154.721 37.518 154.112 34.7627 152.893 32.5763C151.803 30.4732 150.117 28.7387 148.045 27.5903C143.917 25.4183 138.983 25.4183 134.855 27.5903ZM223.905 1.55229C225.083 0.487744 226.634 -0.0678509 228.22 0.00662818C229.819 -0.0640743 231.383 0.490268 232.58 1.55229C233.675 2.55147 234.281 3.97664 234.242 5.45799C234.292 6.9191 233.682 8.32512 232.58 9.28613C231.362 10.3034 229.806 10.8271 228.22 10.7542C226.647 10.8313 225.104 10.3063 223.905 9.28613C222.82 8.31556 222.223 6.91268 222.276 5.45799C222.222 3.96764 222.816 2.52686 223.905 1.50797V1.55229ZM232.863 18.4881V63.3621H223.578V18.4881H232.863ZM270.69 21.9506C273.866 24.6356 275.807 28.2329 276.512 32.7425H267.715C267.422 30.4584 266.307 28.3592 264.579 26.8368C262.873 25.341 260.602 24.6208 257.782 24.6208C255.444 24.6208 253.643 25.1748 252.364 26.2828C251.077 27.4238 250.374 29.0853 250.452 30.8035C250.395 32.09 250.901 33.3376 251.837 34.2217C252.836 35.1357 254.016 35.8302 255.3 36.2604C257.238 36.9027 259.207 37.4463 261.2 37.8891C263.983 38.4774 266.719 39.2662 269.388 40.2492C271.478 41.0676 273.327 42.4017 274.762 44.1272C276.239 45.8926 276.978 48.2933 276.978 51.3292C277.074 54.8739 275.488 58.2552 272.701 60.448C269.853 62.7859 266.012 63.953 261.178 63.9493C255.59 63.9493 251.071 62.6474 247.621 60.0436C244.172 57.4398 242.102 53.7779 241.411 49.0578H250.452C250.67 51.4043 251.849 53.5561 253.71 55.0022C255.608 56.5276 258.105 57.2884 261.2 57.2847C263.416 57.2847 265.167 56.7011 266.452 55.534C267.711 54.41 268.412 52.7892 268.369 51.102C268.438 49.6994 267.904 48.3341 266.901 47.3515C265.845 46.384 264.597 45.6497 263.239 45.1964C261.264 44.5439 259.251 44.0129 257.211 43.6064C254.52 43.0123 251.869 42.2518 249.272 41.3295C247.239 40.5734 245.441 39.2951 244.059 37.6232C242.619 35.9095 241.9 33.5883 241.904 30.6594C241.802 27.0802 243.383 23.6598 246.175 21.4187C249.03 19.0513 252.98 17.8694 258.026 17.8731C263.289 17.8731 267.51 19.2193 270.69 21.9118V21.9506ZM93.1163 39.4514C93.1645 35.7404 92.2523 32.0801 90.4682 28.8257C88.7103 25.656 86.0826 23.0552 82.895 21.3301C75.6427 17.68 67.0868 17.6964 59.8486 21.3744C56.511 23.2163 53.78 25.9877 51.9874 29.352C50.089 32.8237 49.1398 36.8864 49.1398 41.54C49.1398 46.2675 50.089 50.3671 51.9874 53.8388C53.7781 57.1947 56.5028 59.9598 59.832 61.7998C63.3724 63.695 67.3403 64.6488 71.3552 64.5698C74.8577 64.6198 78.3295 63.9111 81.5322 62.4923C87.3818 59.9481 91.5701 54.6452 92.6897 48.3653H82.7565C82.3167 50.8942 80.8973 53.1476 78.8065 54.6366C76.5121 56.2565 73.7525 57.085 70.9452 56.9966C67.6693 57.092 64.4867 55.8985 62.0812 53.6726C59.6953 51.4566 58.4193 48.0366 58.2531 43.4125H92.7839C93.0187 42.0906 93.13 40.7497 93.1163 39.4071V39.4514ZM62.253 29.352C64.7517 27.112 68.0178 25.9215 71.3718 26.028C73.5573 26.0051 75.718 26.4927 77.6819 27.4518C79.6203 28.4108 81.2134 29.9478 82.2413 31.8505C83.1239 33.4872 83.6293 35.3006 83.7205 37.1579H58.4636C58.9511 33.7859 60.2143 31.1691 62.253 29.3077V29.352ZM209.141 22.9256C212.295 26.305 213.874 31.123 213.877 37.3795V63.5947H204.565V38.3157C204.565 34.2863 203.53 31.1691 201.462 28.9642C199.394 26.7593 196.563 25.6513 192.969 25.6402C189.276 25.6402 186.308 26.8239 184.067 29.1913C181.825 31.5588 180.717 35.0305 180.743 39.6065V63.5338H171.435V18.5545H180.743V28.4324C181.82 25.2151 183.949 22.454 186.787 20.5933C189.707 18.7188 193.118 17.7547 196.587 17.8233C201.813 17.8198 205.998 19.5056 209.141 22.8813V22.9256Z" fill="#191823"/>
</g>
<defs>
<clipPath id="clip0_4896_166650">
<rect width="277" height="64.5964" fill="white"/>
</clipPath>
</defs>
</svg>
